<svg width="590" height="89" viewBox="0 0 590 89" fill="none" xmlns="http://www.w3.org/2000/svg">
    <path d="M17.5626 88C16.6517 88 15.9064 87.7102 15.3268 87.1305L1.78747 73.5912C1.2078 73.0115 0.917973 72.2663 0.917973 71.3554V2.41676C0.917973 1.50585 1.37342 1.0504 2.28432 1.0504H9.24029C10.1512 1.0504 10.6066 1.50585 10.6066 2.41676V73.7154C10.6066 76.7793 12.18 78.3113 15.3268 78.3113H55.6962C58.843 78.3113 60.4163 76.7793 60.4163 73.7154V2.41676C60.4163 1.50585 60.8718 1.0504 61.7827 1.0504H68.7386C69.6495 1.0504 70.105 1.50585 70.105 2.41676V71.3554C70.105 72.2663 69.8152 73.0115 69.2355 73.5912L55.6962 87.1305C55.1165 87.7102 54.3713 88 53.4604 88H17.5626ZM92.7759 88C91.865 88 91.4096 87.5445 91.4096 86.6336V17.695C91.4096 16.7841 91.6994 16.0389 92.2791 15.4592L105.818 1.9199C106.398 1.34023 107.102 1.0504 107.93 1.0504H138.114C139.025 1.0504 139.77 1.34023 140.35 1.9199L160.721 22.4152C161.383 22.9948 161.715 23.7401 161.715 24.651V86.6336C161.715 87.5445 161.259 88 160.348 88H153.516C152.606 88 152.15 87.5445 152.15 86.6336V27.1353L135.63 10.7391H105.818C102.672 10.7391 101.098 12.271 101.098 15.335V86.6336C101.098 87.5445 100.643 88 99.7319 88H92.7759ZM209.462 10.6149C208.551 10.6149 208.096 10.1594 208.096 9.24851V2.29254C208.096 1.38164 208.551 0.926188 209.462 0.926188H230.33C231.158 0.926188 231.572 1.38164 231.572 2.29254V9.24851C231.572 10.1594 231.158 10.6149 230.33 10.6149H209.462ZM215.921 88C215.093 88 214.348 87.7102 213.685 87.1305L200.27 73.5912C199.608 73.0115 199.277 72.2663 199.277 71.3554V15.335C199.277 12.271 197.745 10.7391 194.681 10.7391H177.415C176.504 10.7391 176.049 10.2836 176.049 9.37272V2.41676C176.049 1.50585 176.504 1.0504 177.415 1.0504H192.321C193.231 1.0504 193.977 1.34023 194.556 1.9199L208.096 15.4592C208.675 16.0389 208.965 16.7841 208.965 17.695V73.7154C208.965 75.1232 209.379 76.2411 210.207 77.0692C211.118 77.8973 212.278 78.3113 213.685 78.3113H230.33C231.158 78.3113 231.572 78.7668 231.572 79.6777V86.6336C231.572 87.5445 231.158 88 230.33 88H215.921ZM177.415 88C176.504 88 176.049 87.5445 176.049 86.6336V79.6777C176.049 78.7668 176.504 78.3113 177.415 78.3113H198.904C199.815 78.3113 200.27 78.7668 200.27 79.6777V86.6336C200.27 87.5445 199.815 88 198.904 88H177.415ZM262.094 88C261.183 88 260.438 87.7102 259.858 87.1305L246.319 73.5912C245.739 73.0115 245.449 72.2663 245.449 71.3554V24.651C245.449 23.8229 245.78 23.0776 246.443 22.4152L266.938 1.9199C267.518 1.34023 268.263 1.0504 269.174 1.0504H299.482C300.393 1.0504 301.138 1.34023 301.718 1.9199L315.257 15.4592C315.837 16.0389 316.127 16.7841 316.127 17.695L316.251 28.129C316.251 29.0399 315.795 29.4953 314.885 29.4953H307.929C307.018 29.4953 306.562 29.0399 306.562 28.129V15.335C306.562 13.9272 306.107 12.8093 305.196 11.9812C304.368 11.1531 303.25 10.7391 301.842 10.7391H271.534L255.138 27.1353V73.7154C255.138 76.7793 256.711 78.3113 259.858 78.3113H292.526L309.668 61.1698C310.33 60.5074 310.993 60.466 311.655 61.0456L316.499 65.8899C317.079 66.5524 317.079 67.1735 316.499 67.7532L297.122 87.1305C296.542 87.7102 295.797 88 294.886 88H262.094ZM382.715 88H349.674C348.763 88 348.018 87.7102 347.438 87.1305L333.899 73.5912C333.319 73.0115 333.029 72.2663 333.029 71.3554V24.651C333.029 23.8229 333.361 23.0776 334.023 22.4152L354.518 1.9199C355.098 1.34023 355.843 1.0504 356.754 1.0504H389.671C390.582 1.0504 391.327 1.34023 391.907 1.9199L405.446 15.4592C406.026 16.0389 406.316 16.7841 406.316 17.695V64.3994C406.316 65.2275 405.984 65.9728 405.322 66.6352L384.827 87.1305C384.247 87.7102 383.543 88 382.715 88ZM380.231 78.3113L396.627 61.9151V15.335C396.627 12.271 395.095 10.7391 392.031 10.7391H359.114L342.718 27.1353V73.7154C342.718 76.7793 344.291 78.3113 347.438 78.3113H380.231ZM428.42 88C427.509 88 427.053 87.5445 427.053 86.6336V17.695C427.053 16.7841 427.343 16.0389 427.923 15.4592L441.462 1.9199C442.042 1.34023 442.787 1.0504 443.698 1.0504H482.08C482.908 1.0504 483.612 1.34023 484.192 1.9199L497.731 15.4592C498.311 16.0389 498.6 16.7841 498.6 17.695V64.3994C498.6 65.3103 498.311 66.0556 497.731 66.6352L477.236 87.1305C476.573 87.7102 475.828 88 475 88H428.42ZM436.742 78.3113H472.516L489.036 61.9151V15.335C489.036 13.9272 488.581 12.8093 487.67 11.9812C486.842 11.1531 485.724 10.7391 484.316 10.7391H441.462C438.315 10.7391 436.742 12.271 436.742 15.335V78.3113ZM520.355 45.022C519.444 45.022 518.989 44.5666 518.989 43.6557L518.865 17.695C518.865 16.8669 519.155 16.1631 519.734 15.5834L533.274 2.04411C533.936 1.38164 534.681 1.0504 535.509 1.0504H572.649C573.477 1.0504 574.181 1.34023 574.761 1.9199L588.3 15.4592C588.88 16.0389 589.17 16.7841 589.17 17.695V26.39C589.17 27.3009 588.714 27.7563 587.803 27.7563H580.972C580.061 27.7563 579.605 27.3009 579.605 26.39V15.335C579.605 13.9272 579.15 12.8093 578.239 11.9812C577.411 11.1531 576.293 10.7391 574.885 10.7391H533.274C530.127 10.7391 528.553 12.271 528.553 15.335L528.678 43.6557C528.678 44.5666 528.222 45.022 527.311 45.022H520.355ZM535.509 88C534.681 88 533.936 87.6687 533.274 87.0063L519.734 73.467C519.155 72.8873 518.865 72.1834 518.865 71.3554V63.5299C518.865 62.7018 519.155 61.9979 519.734 61.4183L540.602 40.3019C541.182 39.7223 541.927 39.4324 542.838 39.4324H571.656C572.484 39.4324 572.898 39.8879 572.898 40.7988V47.7548C572.898 48.6656 572.442 49.1211 571.531 49.1211H545.322L528.553 65.7657V73.7154C528.553 76.7793 530.127 78.3113 533.274 78.3113H574.885C577.949 78.3113 579.481 76.7793 579.481 73.7154V62.6604C579.481 61.7495 579.937 61.294 580.847 61.294H587.803C588.714 61.294 589.17 61.7495 589.17 62.6604V71.3554C589.17 72.2663 588.88 73.0115 588.3 73.5912L574.761 87.1305C574.181 87.7102 573.436 88 572.525 88H535.509Z" fill="#2262FB"/>
    <path d="M15.3268 87.1305L15.8629 86.5944L15.3268 87.1305ZM1.78747 73.5912L1.25134 74.1273L1.78747 73.5912ZM69.2355 73.5912L69.7716 74.1273L69.2355 73.5912ZM55.6962 87.1305L55.1601 86.5944L55.6962 87.1305ZM17.5626 87.2418C16.8283 87.2418 16.2839 87.0154 15.8629 86.5944L14.7906 87.6666C15.5289 88.4049 16.4751 88.7582 17.5626 88.7582V87.2418ZM15.8629 86.5944L2.3236 73.0551L1.25134 74.1273L14.7906 87.6666L15.8629 86.5944ZM2.3236 73.0551C1.90255 72.634 1.67618 72.0897 1.67618 71.3554H0.159771C0.159771 72.4428 0.513057 73.389 1.25134 74.1273L2.3236 73.0551ZM1.67618 71.3554V2.41676H0.159771V71.3554H1.67618ZM1.67618 2.41676C1.67618 2.07818 1.76031 1.9635 1.79569 1.92812C1.83108 1.89273 1.94575 1.8086 2.28432 1.8086V0.292198C1.712 0.292198 1.1435 0.435793 0.72343 0.85586C0.303365 1.27593 0.159771 1.84443 0.159771 2.41676H1.67618ZM2.28432 1.8086H9.24029V0.292198H2.28432V1.8086ZM9.24029 1.8086C9.57887 1.8086 9.69354 1.89273 9.72892 1.92812C9.76431 1.9635 9.84844 2.07817 9.84844 2.41676H11.3648C11.3648 1.84443 11.2212 1.27593 10.8012 0.85586C10.3811 0.435793 9.81261 0.292198 9.24029 0.292198V1.8086ZM9.84844 2.41676V73.7154H11.3648V2.41676H9.84844ZM9.84844 73.7154C9.84844 75.3695 10.2743 76.7481 11.2577 77.7056C12.2374 78.6594 13.6415 79.0695 15.3268 79.0695V77.5531C13.8653 77.5531 12.9093 77.1972 12.3156 76.6191C11.7256 76.0447 11.3648 75.1253 11.3648 73.7154H9.84844ZM15.3268 79.0695H55.6962V77.5531H15.3268V79.0695ZM55.6962 79.0695C57.3815 79.0695 58.7856 78.6594 59.7652 77.7056C60.7486 76.7481 61.1745 75.3695 61.1745 73.7154H59.6581C59.6581 75.1253 59.2973 76.0447 58.7074 76.6191C58.1136 77.1972 57.1577 77.5531 55.6962 77.5531V79.0695ZM61.1745 73.7154V2.41676H59.6581V73.7154H61.1745ZM61.1745 2.41676C61.1745 2.07818 61.2587 1.9635 61.294 1.92812C61.3294 1.89273 61.4441 1.8086 61.7827 1.8086V0.292198C61.2104 0.292198 60.6419 0.435793 60.2218 0.85586C59.8017 1.27592 59.6581 1.84443 59.6581 2.41676H61.1745ZM61.7827 1.8086H68.7386V0.292198H61.7827V1.8086ZM68.7386 1.8086C69.0772 1.8086 69.1919 1.89273 69.2273 1.92812C69.2627 1.9635 69.3468 2.07817 69.3468 2.41676H70.8632C70.8632 1.84443 70.7196 1.27593 70.2995 0.85586C69.8795 0.435793 69.311 0.292198 68.7386 0.292198V1.8086ZM69.3468 2.41676V71.3554H70.8632V2.41676H69.3468ZM69.3468 71.3554C69.3468 72.0897 69.1204 72.634 68.6994 73.0551L69.7716 74.1273C70.5099 73.389 70.8632 72.4428 70.8632 71.3554H69.3468ZM68.6994 73.0551L55.1601 86.5944L56.2323 87.6666L69.7716 74.1273L68.6994 73.0551ZM55.1601 86.5944C54.739 87.0154 54.1947 87.2418 53.4604 87.2418V88.7582C54.5479 88.7582 55.4941 88.4049 56.2323 87.6666L55.1601 86.5944ZM53.4604 87.2418H17.5626V88.7582H53.4604V87.2418ZM92.2791 15.4592L91.7429 14.9231L92.2791 15.4592ZM105.818 1.9199L106.354 2.45603V2.45603L105.818 1.9199ZM140.35 1.9199L140.888 1.3854L140.886 1.38377L140.35 1.9199ZM160.721 22.4152L160.183 22.9497L160.202 22.9684L160.222 22.9858L160.721 22.4152ZM152.15 27.1353H152.908V26.8195L152.684 26.5971L152.15 27.1353ZM135.63 10.7391L136.164 10.2009L135.942 9.98087H135.63V10.7391ZM92.7759 87.2418C92.4374 87.2418 92.3227 87.1577 92.2873 87.1223C92.2519 87.0869 92.1678 86.9722 92.1678 86.6336H90.6514C90.6514 87.206 90.795 87.7745 91.215 88.1945C91.6351 88.6146 92.2036 88.7582 92.7759 88.7582V87.2418ZM92.1678 86.6336V17.695H90.6514V86.6336H92.1678ZM92.1678 17.695C92.1678 16.9607 92.3942 16.4164 92.8152 15.9953L91.7429 14.9231C91.0047 15.6613 90.6514 16.6075 90.6514 17.695H92.1678ZM92.8152 15.9953L106.354 2.45603L105.282 1.38377L91.7429 14.9231L92.8152 15.9953ZM106.354 2.45603C106.79 2.02017 107.301 1.8086 107.93 1.8086V0.292198C106.903 0.292198 106.006 0.660299 105.282 1.38377L106.354 2.45603ZM107.93 1.8086H138.114V0.292198H107.93V1.8086ZM138.114 1.8086C138.848 1.8086 139.393 2.03498 139.814 2.45603L140.886 1.38377C140.148 0.645485 139.201 0.292198 138.114 0.292198V1.8086ZM139.812 2.4544L160.183 22.9497L161.259 21.8807L140.888 1.3854L139.812 2.4544ZM160.222 22.9858C160.713 23.4158 160.956 23.9501 160.956 24.651H162.473C162.473 23.5302 162.054 22.5738 161.22 21.8446L160.222 22.9858ZM160.956 24.651V86.6336H162.473V24.651H160.956ZM160.956 86.6336C160.956 86.9722 160.872 87.0869 160.837 87.1223C160.801 87.1577 160.687 87.2418 160.348 87.2418V88.7582C160.921 88.7582 161.489 88.6146 161.909 88.1945C162.329 87.7745 162.473 87.206 162.473 86.6336H160.956ZM160.348 87.2418H153.516V88.7582H160.348V87.2418ZM153.516 87.2418C153.178 87.2418 153.063 87.1577 153.028 87.1223C152.992 87.0869 152.908 86.9722 152.908 86.6336H151.392C151.392 87.206 151.535 87.7745 151.956 88.1945C152.376 88.6146 152.944 88.7582 153.516 88.7582V87.2418ZM152.908 86.6336V27.1353H151.392V86.6336H152.908ZM152.684 26.5971L136.164 10.2009L135.096 11.2772L151.616 27.6734L152.684 26.5971ZM135.63 9.98087H105.818V11.4973H135.63V9.98087ZM105.818 9.98087C104.133 9.98087 102.729 10.391 101.749 11.3448C100.766 12.3023 100.34 13.6809 100.34 15.335H101.856C101.856 13.9251 102.217 13.0057 102.807 12.4313C103.401 11.8532 104.357 11.4973 105.818 11.4973V9.98087ZM100.34 15.335V86.6336H101.856V15.335H100.34ZM100.34 86.6336C100.34 86.9722 100.256 87.0869 100.221 87.1223C100.185 87.1577 100.07 87.2418 99.7319 87.2418V88.7582C100.304 88.7582 100.873 88.6146 101.293 88.1945C101.713 87.7745 101.856 87.206 101.856 86.6336H100.34ZM99.7319 87.2418H92.7759V88.7582H99.7319V87.2418ZM213.685 87.1305L213.147 87.6641L213.166 87.6833L213.186 87.7011L213.685 87.1305ZM200.27 73.5912L200.809 73.0575L200.79 73.0384L200.77 73.0206L200.27 73.5912ZM194.556 1.9199L194.02 2.45603V2.45603L194.556 1.9199ZM208.096 15.4592L208.632 14.9231L208.096 15.4592ZM210.207 77.0692L209.671 77.6053L209.684 77.6181L209.697 77.6302L210.207 77.0692ZM209.462 9.85666C209.123 9.85666 209.009 9.77252 208.973 9.73714C208.938 9.70176 208.854 9.58709 208.854 9.24851H207.338C207.338 9.82083 207.481 10.3893 207.901 10.8094C208.321 11.2295 208.89 11.3731 209.462 11.3731V9.85666ZM208.854 9.24851V2.29254H207.338V9.24851H208.854ZM208.854 2.29254C208.854 1.95396 208.938 1.83929 208.973 1.80391C209.009 1.76852 209.123 1.68439 209.462 1.68439V0.167986C208.89 0.167986 208.321 0.311581 207.901 0.731646C207.481 1.15171 207.338 1.72021 207.338 2.29254H208.854ZM209.462 1.68439H230.33V0.167986H209.462V1.68439ZM230.33 1.68439C230.608 1.68439 230.682 1.75739 230.701 1.7778C230.732 1.81191 230.814 1.93703 230.814 2.29254H232.33C232.33 1.73714 232.206 1.17909 231.823 0.757751C231.427 0.322704 230.88 0.167986 230.33 0.167986V1.68439ZM230.814 2.29254V9.24851H232.33V2.29254H230.814ZM230.814 9.24851C230.814 9.60402 230.732 9.72914 230.701 9.76324C230.682 9.78365 230.608 9.85666 230.33 9.85666V11.3731C230.88 11.3731 231.427 11.2183 231.823 10.7833C232.206 10.362 232.33 9.8039 232.33 9.24851H230.814ZM230.33 9.85666H209.462V11.3731H230.33V9.85666ZM215.921 87.2418C215.289 87.2418 214.718 87.0269 214.185 86.5599L213.186 87.7011C213.977 88.3934 214.897 88.7582 215.921 88.7582V87.2418ZM214.224 86.5968L200.809 73.0575L199.732 74.1248L213.147 87.6641L214.224 86.5968ZM200.77 73.0206C200.278 72.5905 200.035 72.0563 200.035 71.3554H198.518C198.518 72.4762 198.938 73.4325 199.771 74.1618L200.77 73.0206ZM200.035 71.3554V15.335H198.518V71.3554H200.035ZM200.035 15.335C200.035 13.6861 199.622 12.3102 198.664 11.3519C197.705 10.3936 196.329 9.98087 194.681 9.98087V11.4973C196.096 11.4973 197.018 11.8505 197.591 12.4242C198.165 12.9978 198.518 13.9199 198.518 15.335H200.035ZM194.681 9.98087H177.415V11.4973H194.681V9.98087ZM177.415 9.98087C177.076 9.98087 176.962 9.89674 176.926 9.86135C176.891 9.82597 176.807 9.7113 176.807 9.37272H175.29C175.29 9.94504 175.434 10.5135 175.854 10.9336C176.274 11.3537 176.843 11.4973 177.415 11.4973V9.98087ZM176.807 9.37272V2.41676H175.29V9.37272H176.807ZM176.807 2.41676C176.807 2.07818 176.891 1.9635 176.926 1.92812C176.962 1.89273 177.076 1.8086 177.415 1.8086V0.292198C176.843 0.292198 176.274 0.435793 175.854 0.85586C175.434 1.27593 175.29 1.84443 175.29 2.41676H176.807ZM177.415 1.8086H192.321V0.292198H177.415V1.8086ZM192.321 1.8086C193.055 1.8086 193.599 2.03498 194.02 2.45603L195.093 1.38377C194.354 0.645485 193.408 0.292198 192.321 0.292198V1.8086ZM194.02 2.45603L207.56 15.9953L208.632 14.9231L195.093 1.38377L194.02 2.45603ZM207.56 15.9953C207.981 16.4164 208.207 16.9607 208.207 17.695H209.723C209.723 16.6075 209.37 15.6613 208.632 14.9231L207.56 15.9953ZM208.207 17.695V73.7154H209.723V17.695H208.207ZM208.207 73.7154C208.207 75.2808 208.673 76.607 209.671 77.6053L210.743 76.5331C210.086 75.8752 209.723 74.9655 209.723 73.7154H208.207ZM209.697 77.6302C210.768 78.6034 212.118 79.0695 213.685 79.0695V77.5531C212.437 77.5531 211.469 77.1911 210.717 76.5082L209.697 77.6302ZM213.685 79.0695H230.33V77.5531H213.685V79.0695ZM230.33 79.0695C230.608 79.0695 230.682 79.1425 230.701 79.1629C230.732 79.197 230.814 79.3222 230.814 79.6777H232.33C232.33 79.1223 232.206 78.5642 231.823 78.1429C231.427 77.7078 230.88 77.5531 230.33 77.5531V79.0695ZM230.814 79.6777V86.6336H232.33V79.6777H230.814ZM230.814 86.6336C230.814 86.9891 230.732 87.1143 230.701 87.1484C230.682 87.1688 230.608 87.2418 230.33 87.2418V88.7582C230.88 88.7582 231.427 88.6035 231.823 88.1684C232.206 87.7471 232.33 87.189 232.33 86.6336H230.814ZM230.33 87.2418H215.921V88.7582H230.33V87.2418ZM177.415 87.2418C177.076 87.2418 176.962 87.1577 176.926 87.1223C176.891 87.0869 176.807 86.9722 176.807 86.6336H175.29C175.29 87.206 175.434 87.7745 175.854 88.1945C176.274 88.6146 176.843 88.7582 177.415 88.7582V87.2418ZM176.807 86.6336V79.6777H175.29V86.6336H176.807ZM176.807 79.6777C176.807 79.3391 176.891 79.2244 176.926 79.189C176.962 79.1536 177.076 79.0695 177.415 79.0695V77.5531C176.843 77.5531 176.274 77.6967 175.854 78.1168C175.434 78.5368 175.29 79.1053 175.29 79.6777H176.807ZM177.415 79.0695H198.904V77.5531H177.415V79.0695ZM198.904 79.0695C199.242 79.0695 199.357 79.1536 199.393 79.189C199.428 79.2244 199.512 79.3391 199.512 79.6777H201.028C201.028 79.1053 200.885 78.5368 200.465 78.1168C200.045 77.6967 199.476 77.5531 198.904 77.5531V79.0695ZM199.512 79.6777V86.6336H201.028V79.6777H199.512ZM199.512 86.6336C199.512 86.9722 199.428 87.0869 199.393 87.1223C199.357 87.1577 199.242 87.2418 198.904 87.2418V88.7582C199.476 88.7582 200.045 88.6146 200.465 88.1945C200.885 87.7745 201.028 87.206 201.028 86.6336H199.512ZM198.904 87.2418H177.415V88.7582H198.904V87.2418ZM259.858 87.1305L260.394 86.5944L259.858 87.1305ZM246.319 73.5912L246.855 73.0551L246.319 73.5912ZM246.443 22.4152L246.979 22.9513L246.443 22.4152ZM266.938 1.9199L267.474 2.45603V2.45603L266.938 1.9199ZM316.127 17.695H315.368L315.369 17.7041L316.127 17.695ZM316.251 28.129H317.009L317.009 28.12L316.251 28.129ZM305.196 11.9812L304.66 12.5173L304.673 12.5301L304.686 12.5422L305.196 11.9812ZM271.534 10.7391V9.98087H271.22L270.998 10.2029L271.534 10.7391ZM255.138 27.1353L254.602 26.5991L254.38 26.8212V27.1353H255.138ZM292.526 78.3113V79.0695H292.84L293.062 78.8475L292.526 78.3113ZM309.668 61.1698L310.204 61.706L309.668 61.1698ZM311.655 61.0456L312.191 60.5095L312.173 60.4916L312.154 60.475L311.655 61.0456ZM316.499 65.8899L317.07 65.3907L317.053 65.3717L317.035 65.3538L316.499 65.8899ZM316.499 67.7532L317.035 68.2893L316.499 67.7532ZM297.122 87.1305L296.586 86.5944L297.122 87.1305ZM262.094 87.2418C261.359 87.2418 260.815 87.0154 260.394 86.5944L259.322 87.6666C260.06 88.4049 261.006 88.7582 262.094 88.7582V87.2418ZM260.394 86.5944L246.855 73.0551L245.782 74.1273L259.322 87.6666L260.394 86.5944ZM246.855 73.0551C246.434 72.634 246.207 72.0897 246.207 71.3554H244.691C244.691 72.4428 245.044 73.389 245.782 74.1273L246.855 73.0551ZM246.207 71.3554V24.651H244.691V71.3554H246.207ZM246.207 24.651C246.207 24.0511 246.438 23.4919 246.979 22.9513L245.907 21.879C245.122 22.6633 244.691 23.5948 244.691 24.651H246.207ZM246.979 22.9513L267.474 2.45603L266.402 1.38377L245.907 21.879L246.979 22.9513ZM267.474 2.45603C267.895 2.03498 268.44 1.8086 269.174 1.8086V0.292198C268.086 0.292198 267.14 0.645485 266.402 1.38377L267.474 2.45603ZM269.174 1.8086H299.482V0.292198H269.174V1.8086ZM299.482 1.8086C300.216 1.8086 300.761 2.03498 301.182 2.45603L302.254 1.38377C301.516 0.645485 300.57 0.292198 299.482 0.292198V1.8086ZM301.182 2.45603L314.721 15.9953L315.793 14.9231L302.254 1.38377L301.182 2.45603ZM314.721 15.9953C315.142 16.4164 315.368 16.9607 315.368 17.695H316.885C316.885 16.6075 316.532 15.6613 315.793 14.9231L314.721 15.9953ZM315.369 17.7041L315.493 28.138L317.009 28.12L316.885 17.686L315.369 17.7041ZM315.493 28.129C315.493 28.4676 315.409 28.5822 315.373 28.6176C315.338 28.653 315.223 28.7371 314.885 28.7371V30.2535C315.457 30.2535 316.025 30.1099 316.445 29.6899C316.866 29.2698 317.009 28.7013 317.009 28.129H315.493ZM314.885 28.7371H307.929V30.2535H314.885V28.7371ZM307.929 28.7371C307.59 28.7371 307.475 28.653 307.44 28.6176C307.405 28.5822 307.32 28.4676 307.32 28.129H305.804C305.804 28.7013 305.948 29.2698 306.368 29.6899C306.788 30.1099 307.356 30.2535 307.929 30.2535V28.7371ZM307.32 28.129V15.335H305.804V28.129H307.32ZM307.32 15.335C307.32 13.7474 306.798 12.4132 305.706 11.4202L304.686 12.5422C305.415 13.2053 305.804 14.107 305.804 15.335H307.32ZM305.732 11.4451C304.734 10.4468 303.407 9.98087 301.842 9.98087V11.4973C303.092 11.4973 304.002 11.8595 304.66 12.5173L305.732 11.4451ZM301.842 9.98087H271.534V11.4973H301.842V9.98087ZM270.998 10.2029L254.602 26.5991L255.674 27.6714L272.07 11.2752L270.998 10.2029ZM254.38 27.1353V73.7154H255.896V27.1353H254.38ZM254.38 73.7154C254.38 75.3695 254.805 76.7481 255.789 77.7056C256.768 78.6594 258.173 79.0695 259.858 79.0695V77.5531C258.396 77.5531 257.44 77.1972 256.847 76.6191C256.257 76.0447 255.896 75.1253 255.896 73.7154H254.38ZM259.858 79.0695H292.526V77.5531H259.858V79.0695ZM293.062 78.8475L310.204 61.706L309.131 60.6337L291.99 77.7752L293.062 78.8475ZM310.204 61.706C310.458 61.452 310.625 61.4039 310.709 61.3986C310.782 61.3941 310.924 61.4137 311.156 61.6162L312.154 60.475C311.723 60.0979 311.203 59.8484 310.614 59.8852C310.035 59.9214 309.54 60.2252 309.131 60.6337L310.204 61.706ZM311.119 61.5817L315.963 66.4261L317.035 65.3538L312.191 60.5095L311.119 61.5817ZM315.929 66.3892C316.148 66.6394 316.176 66.7896 316.176 66.8526C316.176 66.9039 316.158 67.0222 315.963 67.217L317.035 68.2893C317.42 67.9044 317.692 67.4223 317.692 66.8526C317.692 66.2945 317.431 65.803 317.07 65.3907L315.929 66.3892ZM315.963 67.217L296.586 86.5944L297.658 87.6666L317.035 68.2893L315.963 67.217ZM296.586 86.5944C296.165 87.0154 295.62 87.2418 294.886 87.2418V88.7582C295.974 88.7582 296.92 88.4049 297.658 87.6666L296.586 86.5944ZM294.886 87.2418H262.094V88.7582H294.886V87.2418ZM347.438 87.1305L347.974 86.5944L347.438 87.1305ZM333.899 73.5912L334.435 73.0551L333.899 73.5912ZM334.023 22.4152L334.559 22.9513L334.023 22.4152ZM354.518 1.9199L355.055 2.45603V2.45603L354.518 1.9199ZM391.907 1.9199L391.371 2.45603V2.45603L391.907 1.9199ZM405.446 15.4592L405.982 14.9231L405.446 15.4592ZM405.322 66.6352L405.858 67.1714V67.1714L405.322 66.6352ZM384.827 87.1305L384.29 86.5944L384.827 87.1305ZM380.231 78.3113V79.0695H380.545L380.767 78.8475L380.231 78.3113ZM396.627 61.9151L397.163 62.4512L397.385 62.2292V61.9151H396.627ZM359.114 10.7391V9.98087H358.8L358.578 10.2029L359.114 10.7391ZM342.718 27.1353L342.182 26.5991L341.96 26.8212V27.1353H342.718ZM382.715 87.2418H349.674V88.7582H382.715V87.2418ZM349.674 87.2418C348.94 87.2418 348.395 87.0154 347.974 86.5944L346.902 87.6666C347.64 88.4049 348.587 88.7582 349.674 88.7582V87.2418ZM347.974 86.5944L334.435 73.0551L333.363 74.1273L346.902 87.6666L347.974 86.5944ZM334.435 73.0551C334.014 72.634 333.788 72.0897 333.788 71.3554H332.271C332.271 72.4428 332.625 73.389 333.363 74.1273L334.435 73.0551ZM333.788 71.3554V24.651H332.271V71.3554H333.788ZM333.788 24.651C333.788 24.0511 334.019 23.4919 334.559 22.9513L333.487 21.879C332.703 22.6633 332.271 23.5948 332.271 24.651H333.788ZM334.559 22.9513L355.055 2.45603L353.982 1.38377L333.487 21.879L334.559 22.9513ZM355.055 2.45603C355.476 2.03498 356.02 1.8086 356.754 1.8086V0.292198C355.667 0.292198 354.721 0.645485 353.982 1.38377L355.055 2.45603ZM356.754 1.8086H389.671V0.292198H356.754V1.8086ZM389.671 1.8086C390.405 1.8086 390.95 2.03498 391.371 2.45603L392.443 1.38377C391.705 0.645485 390.758 0.292198 389.671 0.292198V1.8086ZM391.371 2.45603L404.91 15.9953L405.982 14.9231L392.443 1.38377L391.371 2.45603ZM404.91 15.9953C405.331 16.4164 405.557 16.9607 405.557 17.695H407.074C407.074 16.6075 406.72 15.6613 405.982 14.9231L404.91 15.9953ZM405.557 17.695V64.3994H407.074V17.695H405.557ZM405.557 64.3994C405.557 64.9993 405.326 65.5585 404.786 66.0991L405.858 67.1714C406.642 66.3871 407.074 65.4556 407.074 64.3994H405.557ZM404.786 66.0991L384.29 86.5944L385.363 87.6666L405.858 67.1714L404.786 66.0991ZM384.29 86.5944C383.855 87.0302 383.344 87.2418 382.715 87.2418V88.7582C383.742 88.7582 384.639 88.3901 385.363 87.6666L384.29 86.5944ZM380.767 78.8475L397.163 62.4512L396.091 61.379L379.695 77.7752L380.767 78.8475ZM397.385 61.9151V15.335H395.869V61.9151H397.385ZM397.385 15.335C397.385 13.6861 396.972 12.3102 396.014 11.3519C395.056 10.3936 393.68 9.98087 392.031 9.98087V11.4973C393.446 11.4973 394.368 11.8505 394.942 12.4242C395.515 12.9978 395.869 13.9199 395.869 15.335H397.385ZM392.031 9.98087H359.114V11.4973H392.031V9.98087ZM358.578 10.2029L342.182 26.5991L343.254 27.6714L359.65 11.2752L358.578 10.2029ZM341.96 27.1353V73.7154H343.476V27.1353H341.96ZM341.96 73.7154C341.96 75.3695 342.386 76.7481 343.369 77.7056C344.349 78.6594 345.753 79.0695 347.438 79.0695V77.5531C345.977 77.5531 345.021 77.1972 344.427 76.6191C343.837 76.0447 343.476 75.1253 343.476 73.7154H341.96ZM347.438 79.0695H380.231V77.5531H347.438V79.0695ZM427.923 15.4592L427.387 14.9231L427.923 15.4592ZM441.462 1.9199L441.998 2.45603V2.45603L441.462 1.9199ZM484.192 1.9199L483.656 2.45603V2.45603L484.192 1.9199ZM497.731 15.4592L498.267 14.9231L497.731 15.4592ZM497.731 66.6352L497.195 66.0991H497.195L497.731 66.6352ZM477.236 87.1305L477.735 87.7011L477.754 87.6845L477.772 87.6666L477.236 87.1305ZM436.742 78.3113H435.984V79.0695H436.742V78.3113ZM472.516 78.3113V79.0695H472.828L473.05 78.8495L472.516 78.3113ZM489.036 61.9151L489.57 62.4533L489.794 62.2308V61.9151H489.036ZM487.67 11.9812L487.134 12.5173L487.146 12.5301L487.16 12.5422L487.67 11.9812ZM428.42 87.2418C428.081 87.2418 427.967 87.1577 427.931 87.1223C427.896 87.0869 427.812 86.9722 427.812 86.6336H426.295C426.295 87.206 426.439 87.7745 426.859 88.1945C427.279 88.6146 427.847 88.7582 428.42 88.7582V87.2418ZM427.812 86.6336V17.695H426.295V86.6336H427.812ZM427.812 17.695C427.812 16.9607 428.038 16.4164 428.459 15.9953L427.387 14.9231C426.648 15.6613 426.295 16.6075 426.295 17.695H427.812ZM428.459 15.9953L441.998 2.45603L440.926 1.38377L427.387 14.9231L428.459 15.9953ZM441.998 2.45603C442.419 2.03498 442.964 1.8086 443.698 1.8086V0.292198C442.611 0.292198 441.664 0.645485 440.926 1.38377L441.998 2.45603ZM443.698 1.8086H482.08V0.292198H443.698V1.8086ZM482.08 1.8086C482.709 1.8086 483.22 2.02017 483.656 2.45603L484.728 1.38377C484.004 0.660299 483.107 0.292198 482.08 0.292198V1.8086ZM483.656 2.45603L497.195 15.9953L498.267 14.9231L484.728 1.38377L483.656 2.45603ZM497.195 15.9953C497.616 16.4164 497.842 16.9607 497.842 17.695H499.359C499.359 16.6075 499.005 15.6613 498.267 14.9231L497.195 15.9953ZM497.842 17.695V64.3994H499.359V17.695H497.842ZM497.842 64.3994C497.842 65.1337 497.616 65.6781 497.195 66.0991L498.267 67.1714C499.005 66.4331 499.359 65.4869 499.359 64.3994H497.842ZM497.195 66.0991L476.7 86.5944L477.772 87.6666L498.267 67.1714L497.195 66.0991ZM476.736 86.5599C476.203 87.0269 475.632 87.2418 475 87.2418V88.7582C476.024 88.7582 476.944 88.3934 477.735 87.7011L476.736 86.5599ZM475 87.2418H428.42V88.7582H475V87.2418ZM436.742 79.0695H472.516V77.5531H436.742V79.0695ZM473.05 78.8495L489.57 62.4533L488.502 61.377L471.982 77.7732L473.05 78.8495ZM489.794 61.9151V15.335H488.278V61.9151H489.794ZM489.794 15.335C489.794 13.7474 489.272 12.4132 488.18 11.4202L487.16 12.5422C487.889 13.2053 488.278 14.107 488.278 15.335H489.794ZM488.206 11.4451C487.207 10.4468 485.881 9.98087 484.316 9.98087V11.4973C485.566 11.4973 486.476 11.8595 487.134 12.5173L488.206 11.4451ZM484.316 9.98087H441.462V11.4973H484.316V9.98087ZM441.462 9.98087C439.777 9.98087 438.373 10.391 437.393 11.3448C436.41 12.3023 435.984 13.6809 435.984 15.335H437.5C437.5 13.9251 437.861 13.0057 438.451 12.4313C439.045 11.8532 440.001 11.4973 441.462 11.4973V9.98087ZM435.984 15.335V78.3113H437.5V15.335H435.984ZM518.989 43.6557H519.747V43.6521L518.989 43.6557ZM518.865 17.695H518.107V17.6987L518.865 17.695ZM519.734 15.5834L520.27 16.1195L519.734 15.5834ZM533.274 2.04411L533.81 2.58024V2.58024L533.274 2.04411ZM574.761 1.9199L574.225 2.45603V2.45603L574.761 1.9199ZM588.3 15.4592L588.836 14.9231L588.3 15.4592ZM578.239 11.9812L577.703 12.5173L577.716 12.5301L577.729 12.5422L578.239 11.9812ZM528.553 15.335H527.795V15.3383L528.553 15.335ZM528.678 43.6557H529.436V43.6524L528.678 43.6557ZM533.274 87.0063L532.737 87.5424L533.274 87.0063ZM519.734 73.467L520.27 72.9309L519.734 73.467ZM519.734 61.4183L520.27 61.9544L520.274 61.9512L519.734 61.4183ZM540.602 40.3019L540.066 39.7658L540.063 39.769L540.602 40.3019ZM545.322 49.1211V48.3629H545.01L544.788 48.583L545.322 49.1211ZM528.553 65.7657L528.019 65.2276L527.795 65.45V65.7657H528.553ZM588.3 73.5912L588.836 74.1273L588.3 73.5912ZM574.761 87.1305L574.225 86.5944L574.761 87.1305ZM520.355 44.2638C520.017 44.2638 519.902 44.1797 519.867 44.1443C519.831 44.1089 519.747 43.9943 519.747 43.6557H518.231C518.231 44.228 518.374 44.7965 518.794 45.2166C519.215 45.6367 519.783 45.7803 520.355 45.7803V44.2638ZM519.747 43.6521L519.623 17.6914L518.107 17.6987L518.231 43.6593L519.747 43.6521ZM519.623 17.695C519.623 17.0657 519.835 16.5554 520.27 16.1195L519.198 15.0473C518.475 15.7707 518.107 16.6682 518.107 17.695H519.623ZM520.27 16.1195L533.81 2.58024L532.737 1.50798L519.198 15.0473L520.27 16.1195ZM533.81 2.58024C534.35 2.0396 534.909 1.8086 535.509 1.8086V0.292198C534.453 0.292198 533.522 0.723673 532.737 1.50798L533.81 2.58024ZM535.509 1.8086H572.649V0.292198H535.509V1.8086ZM572.649 1.8086C573.279 1.8086 573.789 2.02017 574.225 2.45603L575.297 1.38377C574.574 0.660297 573.676 0.292198 572.649 0.292198V1.8086ZM574.225 2.45603L587.764 15.9953L588.836 14.9231L575.297 1.38377L574.225 2.45603ZM587.764 15.9953C588.185 16.4164 588.411 16.9607 588.411 17.695H589.928C589.928 16.6075 589.575 15.6613 588.836 14.9231L587.764 15.9953ZM588.411 17.695V26.39H589.928V17.695H588.411ZM588.411 26.39C588.411 26.7286 588.327 26.8432 588.292 26.8786C588.257 26.914 588.142 26.9981 587.803 26.9981V28.5145C588.376 28.5145 588.944 28.371 589.364 27.9509C589.784 27.5308 589.928 26.9623 589.928 26.39H588.411ZM587.803 26.9981H580.972V28.5145H587.803V26.9981ZM580.972 26.9981C580.633 26.9981 580.518 26.914 580.483 26.8786C580.448 26.8432 580.363 26.7286 580.363 26.39H578.847C578.847 26.9623 578.991 27.5308 579.411 27.9509C579.831 28.371 580.399 28.5145 580.972 28.5145V26.9981ZM580.363 26.39V15.335H578.847V26.39H580.363ZM580.363 15.335C580.363 13.7474 579.841 12.4132 578.749 11.4202L577.729 12.5422C578.458 13.2053 578.847 14.107 578.847 15.335H580.363ZM578.775 11.4451C577.777 10.4468 576.451 9.98087 574.885 9.98087V11.4973C576.135 11.4973 577.045 11.8595 577.703 12.5173L578.775 11.4451ZM574.885 9.98087H533.274V11.4973H574.885V9.98087ZM533.274 9.98087C531.588 9.98087 530.184 10.391 529.205 11.3448C528.221 12.3023 527.795 13.6809 527.795 15.335H529.312C529.312 13.9251 529.672 13.0057 530.262 12.4313C530.856 11.8532 531.812 11.4973 533.274 11.4973V9.98087ZM527.795 15.3383L527.919 43.659L529.436 43.6524L529.312 15.3316L527.795 15.3383ZM527.919 43.6557C527.919 43.9943 527.835 44.1089 527.8 44.1443C527.765 44.1797 527.65 44.2638 527.311 44.2638V45.7803C527.884 45.7803 528.452 45.6367 528.872 45.2166C529.292 44.7965 529.436 44.228 529.436 43.6557H527.919ZM527.311 44.2638H520.355V45.7803H527.311V44.2638ZM535.509 87.2418C534.909 87.2418 534.35 87.0108 533.81 86.4701L532.737 87.5424C533.522 88.3267 534.453 88.7582 535.509 88.7582V87.2418ZM533.81 86.4701L520.27 72.9309L519.198 74.0031L532.737 87.5424L533.81 86.4701ZM520.27 72.9309C519.835 72.495 519.623 71.9846 519.623 71.3554H518.107C518.107 72.3822 518.475 73.2796 519.198 74.0031L520.27 72.9309ZM519.623 71.3554V63.5299H518.107V71.3554H519.623ZM519.623 63.5299C519.623 62.9006 519.835 62.3902 520.27 61.9544L519.198 60.8821C518.475 61.6056 518.107 62.503 518.107 63.5299H519.623ZM520.274 61.9512L541.141 40.8349L540.063 39.769L519.195 60.8853L520.274 61.9512ZM541.138 40.8381C541.559 40.417 542.104 40.1906 542.838 40.1906V38.6742C541.75 38.6742 540.804 39.0275 540.066 39.7658L541.138 40.8381ZM542.838 40.1906H571.656V38.6742H542.838V40.1906ZM571.656 40.1906C571.933 40.1906 572.008 40.2636 572.026 40.284C572.057 40.3182 572.14 40.4433 572.14 40.7988H573.656C573.656 40.2434 573.531 39.6853 573.148 39.264C572.753 38.8289 572.206 38.6742 571.656 38.6742V40.1906ZM572.14 40.7988V47.7548H573.656V40.7988H572.14ZM572.14 47.7548C572.14 48.0933 572.055 48.208 572.02 48.2434C571.985 48.2788 571.87 48.3629 571.531 48.3629V49.8793C572.104 49.8793 572.672 49.7357 573.092 49.3156C573.512 48.8956 573.656 48.3271 573.656 47.7548H572.14ZM571.531 48.3629H545.322V49.8793H571.531V48.3629ZM544.788 48.583L528.019 65.2276L529.088 66.3039L545.856 49.6592L544.788 48.583ZM527.795 65.7657V73.7154H529.312V65.7657H527.795ZM527.795 73.7154C527.795 75.3695 528.221 76.7481 529.205 77.7056C530.184 78.6594 531.588 79.0695 533.274 79.0695V77.5531C531.812 77.5531 530.856 77.1972 530.262 76.6191C529.672 76.0447 529.312 75.1253 529.312 73.7154H527.795ZM533.274 79.0695H574.885V77.5531H533.274V79.0695ZM574.885 79.0695C576.534 79.0695 577.91 78.6568 578.868 77.6985C579.827 76.7401 580.239 75.3643 580.239 73.7154H578.723C578.723 75.1305 578.37 76.0526 577.796 76.6262C577.222 77.1999 576.3 77.5531 574.885 77.5531V79.0695ZM580.239 73.7154V62.6604H578.723V73.7154H580.239ZM580.239 62.6604C580.239 62.3218 580.323 62.2071 580.359 62.1718C580.394 62.1364 580.509 62.0522 580.847 62.0522V60.5358C580.275 60.5358 579.707 60.6794 579.286 61.0995C578.866 61.5196 578.723 62.0881 578.723 62.6604H580.239ZM580.847 62.0522H587.803V60.5358H580.847V62.0522ZM587.803 62.0522C588.142 62.0522 588.257 62.1364 588.292 62.1718C588.327 62.2071 588.411 62.3218 588.411 62.6604H589.928C589.928 62.0881 589.784 61.5196 589.364 61.0995C588.944 60.6794 588.376 60.5358 587.803 60.5358V62.0522ZM588.411 62.6604V71.3554H589.928V62.6604H588.411ZM588.411 71.3554C588.411 72.0897 588.185 72.634 587.764 73.0551L588.836 74.1273C589.575 73.389 589.928 72.4428 589.928 71.3554H588.411ZM587.764 73.0551L574.225 86.5944L575.297 87.6666L588.836 74.1273L587.764 73.0551ZM574.225 86.5944C573.804 87.0154 573.259 87.2418 572.525 87.2418V88.7582C573.613 88.7582 574.559 88.4049 575.297 87.6666L574.225 86.5944ZM572.525 87.2418H535.509V88.7582H572.525V87.2418Z" fill="#2262FB"/>
    </svg>
    